PathFileType	4	(X/Y/Z)	C:\Git\research_data\torsion_deformities_healthy_kinematics\simulations\P03\pre\Static01\markers_HJC.trc
DataRate	CameraRate	NumFrames	NumMarkers	Units	OrigDataRate	OrigDataStartFrame	OrigNumFrames
150	150	4	38	mm	150	94	150
Frame#	Time	C7			T10			CLAV			STRN			RBAK			SACR			LASI			RASI			LT1			LT2			LT3			LS1			LS2			LS3			LHEE			LTOE			RT1			RT2			RT3			RS1			RS2			RS3			RHEE			RTOE			LKNE			LKNM			LANK			LANM			RKNM			RKNE			RANM			RANK			LKJC			RKJC			LAJC			RAJC			LHJC			RHJC		
		X1	Y1	Z1	X2	Y2	Z2	X3	Y3	Z3	X4	Y4	Z4	X5	Y5	Z5	X6	Y6	Z6	X7	Y7	Z7	X8	Y8	Z8	X9	Y9	Z9	X10	Y10	Z10	X11	Y11	Z11	X12	Y12	Z12	X13	Y13	Z13	X14	Y14	Z14	X15	Y15	Z15	X16	Y16	Z16	X17	Y17	Z17	X18	Y18	Z18	X19	Y19	Z19	X20	Y20	Z20	X21	Y21	Z21	X22	Y22	Z22	X23	Y23	Z23	X24	Y24	Z24	X25	Y25	Z25	X26	Y26	Z26	X27	Y27	Z27	X28	Y28	Z28	X29	Y29	Z29	X30	Y30	Z30	X31	Y31	Z31	X32	Y32	Z32	X33	Y33	Z33	X34	Y34	Z34	X35	Y35	Z35	X36	Y36	Z36	X37	Y37	Z37	X38	Y38	Z38	

94	0.620000	446.772675	1273.809448	-967.029541	446.312988	1095.165527	-914.763794	431.214233	1209.985718	-1097.116089	426.560089	1156.532959	-1128.684814	544.861084	1176.609497	-934.721863	428.853760	874.361816	-913.976868	278.903351	870.658997	-1071.462646	522.447144	876.580566	-1120.952393	242.105820	586.356567	-1127.554443	229.375229	474.583221	-1078.963623	275.065369	531.962646	-1202.611694	282.086304	217.245422	-1032.577393	342.581482	148.828766	-950.090637	253.704987	131.696030	-1061.256104	367.853302	41.856277	-973.743591	261.777893	41.213821	-1082.808350	593.262207	606.194092	-1131.641846	586.282471	507.045837	-1056.419312	583.985229	533.959412	-1197.744385	587.690430	266.072021	-1090.186401	562.574036	216.915939	-982.517395	582.826782	175.665009	-1117.517090	500.141357	44.968204	-981.840454	570.564270	41.770458	-1123.302246	266.539642	432.698181	-1147.172852	365.907654	421.674286	-1164.084595	304.582184	49.503544	-993.972351	356.578674	47.625729	-1044.751099	467.124725	423.676086	-1166.858521	569.744080	439.137146	-1166.278809	490.698059	52.777470	-1062.789917	552.291321	47.589195	-1019.109253	316.223663	427.186218	-1155.628662	518.434387	431.406616	-1166.568604	330.580444	48.564636	-1019.361755	521.494690	50.183334	-1040.949585	326.014693	786.318403	-1025.325274	501.057123	790.574418	-1060.895080	
95	0.626667	446.805878	1273.798462	-967.062378	446.223541	1095.158569	-914.775146	431.296112	1209.963989	-1097.148071	426.651184	1156.507446	-1128.700439	544.816711	1176.553101	-934.688843	428.781067	874.345947	-913.976196	278.791290	870.650208	-1071.431641	522.329468	876.583374	-1120.978882	242.099792	586.335815	-1127.599365	229.361008	474.566559	-1079.025757	275.095459	531.947021	-1202.643677	282.075928	217.233017	-1032.615356	342.511292	148.828400	-950.088135	253.716354	131.686768	-1061.305908	367.844574	41.856705	-973.734802	261.789398	41.208870	-1082.817139	593.153870	606.171143	-1131.663086	586.132202	507.016541	-1056.451782	583.900085	533.940247	-1197.770874	587.622192	266.084259	-1090.282959	562.554260	216.922180	-982.561462	582.776855	175.664963	-1117.552002	500.139374	44.969513	-981.840759	570.551270	41.776543	-1123.310303	266.557343	432.682526	-1147.227905	365.965485	421.684479	-1164.067139	304.576202	49.508827	-993.975464	356.587830	47.617336	-1044.749756	467.025818	423.648193	-1166.898315	569.645813	439.124542	-1166.308594	490.681976	52.774818	-1062.790039	552.282043	47.597305	-1019.110474	316.261414	427.183502	-1155.647461	518.335815	431.386383	-1166.603394	330.582031	48.563084	-1019.362549	521.481995	50.186062	-1040.950317	325.917355	786.305784	-1025.310685	500.955391	790.570125	-1060.921742	
96	0.633333	446.834351	1273.788818	-967.104370	446.126495	1095.151855	-914.790100	431.371063	1209.953003	-1097.179810	426.732086	1156.494873	-1128.715088	544.758728	1176.500488	-934.651367	428.717468	874.336548	-913.992737	278.691681	870.650085	-1071.403687	522.219971	876.585022	-1121.010620	242.101028	586.319031	-1127.634277	229.360809	474.554688	-1079.072632	275.131897	531.932312	-1202.664307	282.064911	217.221222	-1032.649048	342.432617	148.823547	-950.081787	253.730270	131.679184	-1061.360107	367.833862	41.855576	-973.724365	261.806702	41.197742	-1082.830322	593.044861	606.143677	-1131.698486	585.981201	506.986328	-1056.495972	583.808105	533.918274	-1197.813843	587.551514	266.094238	-1090.401245	562.550598	216.924896	-982.613831	582.721924	175.661880	-1117.591553	500.136230	44.971489	-981.840332	570.537231	41.782101	-1123.320068	266.547424	432.695312	-1147.322998	366.033173	421.693573	-1164.031372	304.563843	49.520145	-993.975159	356.596893	47.608173	-1044.747192	466.921722	423.614197	-1166.938599	569.547241	439.107269	-1166.348999	490.666687	52.772583	-1062.790649	552.272522	47.606396	-1019.113892	316.290283	427.194458	-1155.677246	518.234497	431.360718	-1166.643799	330.580353	48.564159	-1019.361145	521.469604	50.189487	-1040.952271	325.828679	786.302271	-1025.300883	500.859478	790.567881	-1060.954816	
97	0.640000	446.856964	1273.781738	-967.150879	446.020020	1095.145508	-914.806885	431.441315	1209.951660	-1097.208496	426.806885	1156.490601	-1128.730591	544.684082	1176.452881	-934.598389	428.662994	874.335022	-914.024536	278.606873	870.659485	-1071.383301	522.122742	876.582458	-1121.045166	242.108414	586.305847	-1127.657715	229.373688	474.547211	-1079.101929	275.169189	531.918274	-1202.674438	282.055511	217.211594	-1032.677002	342.358582	148.815399	-950.073486	253.746140	131.673935	-1061.412842	367.824005	41.853210	-973.715027	261.829590	41.181705	-1082.848389	592.937256	606.111572	-1131.749146	585.836121	506.955414	-1056.556519	583.709351	533.892090	-1197.877441	587.480957	266.100525	-1090.533569	562.557251	216.925858	-982.670532	582.662842	175.656082	-1117.636108	500.131927	44.973919	-981.839233	570.521973	41.787159	-1123.330444	266.521088	432.726807	-1147.435425	366.104919	421.700653	-1163.991333	304.546936	49.536171	-993.970825	356.605591	47.597935	-1044.744141	466.810974	423.577972	-1166.977539	569.448425	439.083679	-1166.406982	490.652893	52.770077	-1062.792603	552.263367	47.616173	-1019.119690	316.312988	427.213715	-1155.713379	518.129700	431.330841	-1166.692261	330.576263	48.567055	-1019.357422	521.458130	50.193123	-1040.956177	325.748738	786.308760	-1025.297132	500.770696	790.565774	-1060.990563	
